<?xml version="1.0" encoding="utf-8"?>
<!-- Generator: Adobe Illustrator 25.2.0, SVG Export Plug-In . SVG Version: 6.00 Build 0)  -->
<svg version="1.1" xmlns="http://www.w3.org/2000/svg" xmlns:xlink="http://www.w3.org/1999/xlink" x="0px" y="0px"
	 viewBox="0 0 96 96" style="enable-background:new 0 0 96 96;" xml:space="preserve">
<style type="text/css">
	.st0{display:none;}
	.st1{display:inline;opacity:0.8;fill:#000019;}
	.st2{display:inline;opacity:0.8;}
	.st3{fill:#000019;}
	.st4{opacity:0.8;fill-rule:evenodd;clip-rule:evenodd;fill:#000019;}
</style>
<g id="Layer_1" class="st0">
	<path class="st1" d="M63.5,38.5c-0.5-5.3-5-7-10.7-7.5l0-7.3l-4.4,0l0,7.1c-1.2,0-2.4,0-3.5,0l0-7.1l-4.4,0l0,7.3c-1,0-1.9,0-2.8,0
		l0,0l-6.1,0l0,4.7c0,0,3.3-0.1,3.2,0c1.8,0,2.4,1,2.5,1.9l0,8.3c0.1,0,0.3,0,0.5,0c-0.1,0-0.3,0-0.5,0l0,11.6
		c-0.1,0.6-0.4,1.5-1.7,1.5c0.1,0.1-3.2,0-3.2,0l-0.9,5.3l5.8,0c1.1,0,2.1,0,3.2,0l0,7.4l4.4,0l0-7.3c1.2,0,2.4,0,3.5,0l0,7.3l4.4,0
		l0-7.3c7.5-0.4,12.7-2.3,13.3-9.3c0.5-5.6-2.1-8.2-6.3-9.2C62.3,44.7,63.9,42.4,63.5,38.5z M57.3,54.2c0,5.5-9.4,4.9-12.4,4.8
		l0-9.8C47.9,49.3,57.3,48.5,57.3,54.2z M55.2,40.5c0,5-7.9,4.4-10.4,4.4l0-8.8C47.4,36,55.3,35.3,55.2,40.5z"/>
</g>
<g id="Layer_2" class="st0">
	<g class="st2">
		<polygon class="st3" points="48,20.2 47.6,21.4 47.6,57.9 48,58.2 64.9,48.2 		"/>
		<polygon class="st3" points="48,20.2 31.1,48.2 48,58.2 48,40.5 		"/>
		<polygon class="st3" points="48,61.4 47.8,61.7 47.8,74.6 48,75.3 64.9,51.4 		"/>
		<polygon class="st3" points="48,75.3 48,61.4 31.1,51.4 		"/>
	</g>
</g>
<g id="Layer_3">
	<polygon class="st4" points="35.8,49.2 41.6,27.1 54.4,27.1 49.9,44 56.1,41.8 56.2,41.9 54.6,47.8 48.3,50.1 45.6,60.2 66.8,60.2 
		64.6,68.3 30.7,68.3 34.1,55.3 29.2,57.1 30.9,51 35.8,49.2 	"/>
</g>
<g id="Layer_4" class="st0">
	<g id="Layer_2_1_" class="st2">
		<g id="Layer_1-2">
			<path class="st3" d="M65.5,27.2h7.2L57.8,42c-5.4,5.3-14.1,5.3-19.5,0L23.3,27.2h7.2l11.3,11.2c3.4,3.4,8.9,3.4,12.4,0L65.5,27.2
				z"/>
			<path class="st3" d="M30.4,68.2h-7.2l15-14.8c5.4-5.3,14.1-5.3,19.5,0l15,14.8h-7.2L54.2,56.9c-3.4-3.4-8.9-3.4-12.4,0L30.4,68.2
				z"/>
		</g>
	</g>
</g>
<g id="Layer_5" class="st0">
	<path class="st1" d="M48,23c-13.8,0-25,11.2-25,25c0,13.8,11.2,25,25,25s25-11.2,25-25C73,34.2,61.8,23,48,23z M58.9,40
		c-0.2,1-1.3,2-2.2,3c-2.5,3-5,6-7.7,9.1c-1,1.2-2,2.3-3.2,3.5h13.1v6.5h-7.7v5.5h-6.7v-5.4h-8.1c0-2.2-0.3-4.4,0.2-6.4
		c0.2-1,1.3-2,2.2-3c2.5-3,5-6,7.7-9.1c1-1.2,2-2.2,3.2-3.5H37.1v-6.5h7.4v-5.5H51v5.4h8.1C59.1,35.9,59.4,38,58.9,40z"/>
</g>
</svg>
