<?xml version="1.0" encoding="utf-8"?>
<!-- Generator: Adobe Illustrator 25.2.1, SVG Export Plug-In . SVG Version: 6.00 Build 0)  -->
<svg version="1.1" xmlns="http://www.w3.org/2000/svg" xmlns:xlink="http://www.w3.org/1999/xlink" x="0px" y="0px"
	 viewBox="0 0 24 24" style="enable-background:new 0 0 24 24;" xml:space="preserve">
<style type="text/css">
	.st0{display:none;}
	.st1{display:inline;opacity:0.8;}
	.st2{fill:#000019;}
	.st3{opacity:0.8;}
</style>
<g id="Layer_1" class="st0">
	<g class="st1">
		<path class="st2" d="M7.9,17.5H6.5V8.1L5,9.2V7.7l1.6-1.2H8L7.9,17.5L7.9,17.5z"/>
		<path class="st2" d="M11.5,17.5v-11H15c2.4,0,4,1.4,4,4.9v1.2c0,3.6-1.6,4.9-4,4.9H11.5z M17.7,12.6v-1.2c0-2.7-0.9-3.7-2.6-3.7
			H13v8.5h2C16.7,16.3,17.7,15.3,17.7,12.6z"/>
	</g>
</g>
<g id="Layer_2">
	<g class="st3">
		<path class="st2" d="M7.9,17.5H6.1v-9L4.5,9.6V7.7l1.7-1.2h1.7V17.5z"/>
		<path class="st2" d="M11.6,17.5v-11h3.7c2.5,0,4.1,1.3,4.1,4.9v1.3c0,3.5-1.7,4.9-4.1,4.9H11.6z M17.7,12.7v-1.3
			c0-2.3-0.7-3.2-2.3-3.2h-1.9v7.8h1.9C17,15.9,17.7,14.9,17.7,12.7z"/>
	</g>
</g>
</svg>
