<?xml version="1.0" encoding="utf-8"?>
<!-- Generator: Adobe Illustrator 25.2.0, SVG Export Plug-In . SVG Version: 6.00 Build 0)  -->
<svg version="1.1" xmlns="http://www.w3.org/2000/svg" xmlns:xlink="http://www.w3.org/1999/xlink" x="0px" y="0px"
	 viewBox="0 0 96 96" style="enable-background:new 0 0 96 96;" xml:space="preserve">
<style type="text/css">
	.st0{display:none;}
	.st1{display:inline;opacity:0.8;fill:#000019;}
	.st2{opacity:0.8;}
	.st3{fill:#000019;}
</style>
<g id="Layer_1" class="st0">
	<path class="st1" d="M63.5,38.5c-0.5-5.3-5-7-10.7-7.5l0-7.3l-4.4,0l0,7.1c-1.2,0-2.4,0-3.5,0l0-7.1l-4.4,0l0,7.3c-1,0-1.9,0-2.8,0
		l0,0l-6.1,0l0,4.7c0,0,3.3-0.1,3.2,0c1.8,0,2.4,1,2.5,1.9l0,8.3c0.1,0,0.3,0,0.5,0c-0.1,0-0.3,0-0.5,0l0,11.6
		c-0.1,0.6-0.4,1.5-1.7,1.5c0.1,0.1-3.2,0-3.2,0l-0.9,5.3l5.8,0c1.1,0,2.1,0,3.2,0l0,7.4l4.4,0l0-7.3c1.2,0,2.4,0,3.5,0l0,7.3l4.4,0
		l0-7.3c7.5-0.4,12.7-2.3,13.3-9.3c0.5-5.6-2.1-8.2-6.3-9.2C62.3,44.7,63.9,42.4,63.5,38.5z M57.3,54.2c0,5.5-9.4,4.9-12.4,4.8
		l0-9.8C47.9,49.3,57.3,48.5,57.3,54.2z M55.2,40.5c0,5-7.9,4.4-10.4,4.4l0-8.8C47.4,36,55.3,35.3,55.2,40.5z"/>
</g>
<g id="Layer_2">
	<g class="st2">
		<polygon class="st3" points="48,20.2 47.6,21.4 47.6,57.9 48,58.2 64.9,48.2 		"/>
		<polygon class="st3" points="48,20.2 31.1,48.2 48,58.2 48,40.5 		"/>
		<polygon class="st3" points="48,61.4 47.8,61.7 47.8,74.6 48,75.3 64.9,51.4 		"/>
		<polygon class="st3" points="48,75.3 48,61.4 31.1,51.4 		"/>
	</g>
</g>
</svg>
