<?xml version="1.0" encoding="utf-8"?>
<!-- Generator: Adobe Illustrator 25.2.1, SVG Export Plug-In . SVG Version: 6.00 Build 0)  -->
<svg version="1.1" id="Layer_1" xmlns="http://www.w3.org/2000/svg" xmlns:xlink="http://www.w3.org/1999/xlink" x="0px" y="0px"
	 viewBox="0 0 64 24" style="enable-background:new 0 0 64 24;" xml:space="preserve">
<style type="text/css">
	.st0{opacity:0.6;}
	.st1{fill:#000019;}
</style>
<g class="st0">
	<path class="st1" d="M16.3,7.9v8.3H15l-3.4-5.6v5.6h-1.3V7.9h1.2l3.4,5.7V7.9H16.3z"/>
	<path class="st1" d="M21.5,16.2c-1.8,0-3.1-1.1-3.1-3.7v-1.1c0-2.6,1.2-3.7,3.1-3.7c1.9,0,3.1,1.1,3.1,3.7v1.1
		C24.6,15.1,23.3,16.2,21.5,16.2z M19.8,12.5c0,1.8,0.6,2.5,1.7,2.5s1.7-0.7,1.7-2.5v-1.1c0-1.8-0.6-2.5-1.7-2.5s-1.7,0.7-1.7,2.5
		V12.5z"/>
	<path class="st1" d="M30.4,12.7l2.4-4.8h1.3v8.3h-1.3v-5.5l-1.9,3.9h-1L28,10.6v5.5h-1.3V7.9H28L30.4,12.7z"/>
	<path class="st1" d="M38,16.1h-1.4V7.9H38V16.1z"/>
	<path class="st1" d="M45,10.4c-0.2-1-0.8-1.5-1.7-1.5c-1.1,0-1.7,0.7-1.7,2.5v1.1c0,1.8,0.6,2.5,1.7,2.5c0.9,0,1.5-0.5,1.7-1.5h1.3
		c-0.3,1.9-1.4,2.7-3,2.7c-1.8,0-3.1-1.1-3.1-3.7v-1.1c0-2.6,1.2-3.7,3.1-3.7c1.6,0,2.7,0.9,3,2.7H45z"/>
	<path class="st1" d="M52.5,9.9C52.1,9.3,51.7,9,50.7,9c-0.9,0-1.4,0.4-1.4,1.1c0,0.8,0.6,1.1,1.8,1.4c1.7,0.4,2.5,1,2.5,2.5
		c0,1.2-0.8,2.4-2.8,2.4c-1.4,0-2.4-0.4-3.1-1.4l1.1-0.8c0.5,0.6,1,0.9,1.9,0.9c1.1,0,1.5-0.5,1.5-1.1c0-0.7-0.4-1.1-1.8-1.4
		C48.9,12.2,48,11.4,48,10c0-1.2,0.8-2.3,2.8-2.3c1.3,0,2.2,0.4,2.8,1.4L52.5,9.9z"/>
</g>
</svg>
